<?xml version="1.0" encoding="utf-8"?>
<!-- Generator: Adobe Illustrator 16.0.0, SVG Export Plug-In . SVG Version: 6.00 Build 0)  -->
<!DOCTYPE svg PUBLIC "-//W3C//DTD SVG 1.1//EN" "http://www.w3.org/Graphics/SVG/1.1/DTD/svg11.dtd">
<svg version="1.1" id="Layer_1" xmlns="http://www.w3.org/2000/svg" xmlns:xlink="http://www.w3.org/1999/xlink" x="0px" y="0px"
	 width="51.667px" height="51.667px" viewBox="0 0 51.667 51.667" enable-background="new 0 0 51.667 51.667" xml:space="preserve">
<g>
	<rect x="3.5" y="3.163" fill="#FFFFFF" stroke="#4D4D4D" stroke-miterlimit="10" width="5" height="5"/>
	<rect x="3.5" y="9.163" fill="#FFFFFF" stroke="#4D4D4D" stroke-miterlimit="10" width="5" height="7"/>
	<rect x="3.5" y="16.163" fill="#FFFFFF" stroke="#4D4D4D" stroke-miterlimit="10" width="5" height="5"/>
	<rect x="10.5" y="16.163" fill="#FFFFFF" stroke="#4D4D4D" stroke-miterlimit="10" width="6" height="5"/>
	<rect x="16.5" y="16.163" fill="#FFFFFF" stroke="#4D4D4D" stroke-miterlimit="10" width="7" height="5"/>
	<rect x="23.5" y="16.163" fill="#FFFFFF" stroke="#4D4D4D" stroke-miterlimit="10" width="6" height="5"/>
	<rect x="16.5" y="8.163" fill="#FFFFFF" stroke="#4D4D4D" stroke-miterlimit="10" width="7" height="8"/>
	<rect x="16.5" y="23.163" fill="#FFFFFF" stroke="#4D4D4D" stroke-miterlimit="10" width="7" height="4"/>
	<rect x="16.5" y="29.163" fill="#FFFFFF" stroke="#4D4D4D" stroke-miterlimit="10" width="7" height="7"/>
	<rect x="16.5" y="36.163" fill="#FFFFFF" stroke="#4D4D4D" stroke-miterlimit="10" width="7" height="6"/>
	<rect x="10.5" y="29.163" fill="#FFFFFF" stroke="#4D4D4D" stroke-miterlimit="10" width="6" height="7"/>
	<rect x="23.5" y="29.163" fill="#FFFFFF" stroke="#4D4D4D" stroke-miterlimit="10" width="6" height="7"/>
	<rect x="29.5" y="29.163" fill="#FFFFFF" stroke="#4D4D4D" stroke-miterlimit="10" width="7" height="7"/>
	<rect x="36.5" y="29.163" fill="#FFFFFF" stroke="#4D4D4D" stroke-miterlimit="10" width="5" height="7"/>
	<rect x="41.5" y="29.163" fill="#FFFFFF" stroke="#4D4D4D" stroke-miterlimit="10" width="7" height="7"/>
	<rect x="5.5" y="29.163" fill="#FFFFFF" stroke="#4D4D4D" stroke-miterlimit="10" width="5" height="7"/>
	<rect x="36.5" y="23.163" fill="#FFFFFF" stroke="#4D4D4D" stroke-miterlimit="10" width="5" height="6"/>
	<rect x="36.5" y="36.163" fill="#FFFFFF" stroke="#4D4D4D" stroke-miterlimit="10" width="5" height="6"/>
	<rect x="36.5" y="44.163" fill="#FFFFFF" stroke="#4D4D4D" stroke-miterlimit="10" width="5" height="5"/>
</g>
</svg>
