<?xml version="1.0" encoding="utf-8"?>
<!-- Generator: Adobe Illustrator 16.0.0, SVG Export Plug-In . SVG Version: 6.00 Build 0)  -->
<!DOCTYPE svg PUBLIC "-//W3C//DTD SVG 1.1//EN" "http://www.w3.org/Graphics/SVG/1.1/DTD/svg11.dtd">
<svg version="1.1" id="Layer_1" xmlns="http://www.w3.org/2000/svg" xmlns:xlink="http://www.w3.org/1999/xlink" x="0px" y="0px"
	 width="51.667px" height="51.667px" viewBox="0 0 51.667 51.667" enable-background="new 0 0 51.667 51.667" xml:space="preserve">
<g>
	<g>
		<path fill="#FFFFFF" d="M4.069,12.79h11.416V1.379H4.069V12.79z M6.057,3.368h7.436v7.436H6.057V3.368z"/>
		<path fill="#FFFFFF" d="M4.069,25.285h11.416V13.87H4.069V25.285z M6.057,15.862h7.436v7.431H6.057V15.862z"/>
		<path fill="#FFFFFF" d="M4.069,37.726h11.416V26.312H4.069V37.726z M6.057,28.3h7.436v7.435H6.057V28.3z"/>
		<path fill="#FFFFFF" d="M4.069,50.175h11.416V38.759H4.069V50.175z M6.057,40.749h7.436v7.437H6.057V40.749z"/>
		<rect x="18.542" y="3.674" fill="#FFFFFF" width="29.949" height="2.237"/>
		<rect x="18.542" y="7.65" fill="#FFFFFF" width="21.5" height="2.238"/>
		<rect x="18.542" y="15.481" fill="#FFFFFF" width="29.949" height="2.236"/>
		<rect x="18.542" y="19.458" fill="#FFFFFF" width="21.5" height="2.235"/>
		<rect x="19.288" y="28.279" fill="#FFFFFF" width="29.953" height="2.236"/>
		<rect x="19.288" y="32.256" fill="#FFFFFF" width="21.5" height="2.237"/>
		<rect x="19.288" y="40.459" fill="#FFFFFF" width="29.953" height="2.235"/>
		<rect x="19.288" y="44.436" fill="#FFFFFF" width="21.5" height="2.238"/>
	</g>
</g>
</svg>
