<?xml version="1.0" encoding="utf-8"?>
<!-- Generator: Adobe Illustrator 16.0.0, SVG Export Plug-In . SVG Version: 6.00 Build 0)  -->
<!DOCTYPE svg PUBLIC "-//W3C//DTD SVG 1.1//EN" "http://www.w3.org/Graphics/SVG/1.1/DTD/svg11.dtd">
<svg version="1.1" id="Layer_1" xmlns="http://www.w3.org/2000/svg" xmlns:xlink="http://www.w3.org/1999/xlink" x="0px" y="0px"
	 width="51.667px" height="51.667px" viewBox="0 0 51.667 51.667" enable-background="new 0 0 51.667 51.667" xml:space="preserve">
<g>
	<ellipse fill="#F8F7F5" stroke="#999999" stroke-miterlimit="10" cx="26.144" cy="26.165" rx="23.68" ry="23.773"/>
	<g>
		<polygon fill="#4D4D4D" points="38.543,26.165 20.58,38.46 20.58,26.389 20.58,13.869 		"/>
		<path fill="#4D4D4D" d="M20.58,39.28c-0.129,0-0.26-0.03-0.377-0.097c-0.271-0.141-0.438-0.419-0.438-0.723V13.869
			c0-0.304,0.167-0.585,0.438-0.726c0.264-0.145,0.593-0.121,0.843,0.046l17.959,12.298c0.221,0.151,0.355,0.405,0.355,0.677
			c0,0.27-0.135,0.524-0.355,0.677L21.039,39.138C20.903,39.232,20.741,39.28,20.58,39.28z M21.399,15.42v21.489l15.698-10.745
			L21.399,15.42z"/>
	</g>
</g>
</svg>
