<?xml version="1.0" encoding="utf-8"?>
<!-- Generator: Adobe Illustrator 16.0.0, SVG Export Plug-In . SVG Version: 6.00 Build 0)  -->
<!DOCTYPE svg PUBLIC "-//W3C//DTD SVG 1.1//EN" "http://www.w3.org/Graphics/SVG/1.1/DTD/svg11.dtd">
<svg version="1.1" id="Layer_1" xmlns="http://www.w3.org/2000/svg" xmlns:xlink="http://www.w3.org/1999/xlink" x="0px" y="0px"
	 width="51.667px" height="51.667px" viewBox="0 0 51.667 51.667" enable-background="new 0 0 51.667 51.667" xml:space="preserve">
<g>
	<path fill="#E6E6E6" stroke="#000000" stroke-miterlimit="10" d="M39.553,46.692c-1.064,0.016-4.451-1.559-7.607-2.418
		c-3.684-1.002-8.265-0.998-11.949,0c-3.18,0.862-6.142,2.436-7.61,2.418c-5.579-0.072-9.778-5.616-9.778-11.285l0,0
		c0-6.206,5.283-11.796,11.559-12.077h23.906c6.272,0.28,11.261,5.871,11.261,12.077l0,0C49.334,41.076,45.134,46.598,39.553,46.692
		z"/>
	<polygon fill="#2E434E" points="17.108,32.752 14.692,32.752 14.692,30.335 10.665,30.335 10.665,32.752 8.249,32.752 
		8.249,36.781 10.665,36.781 10.665,39.197 14.692,39.197 14.692,36.781 17.108,36.781 	"/>
	
		<line fill="none" stroke="#C8D4D8" stroke-width="2" stroke-linecap="round" stroke-linejoin="round" stroke-miterlimit="10" x1="25.166" y1="28.311" x2="23.555" y2="29.923"/>
	
		<line fill="#4D4D4D" stroke="#C8D4D8" stroke-width="2" stroke-linecap="round" stroke-linejoin="round" stroke-miterlimit="10" x1="28.387" y1="29.61" x2="26.776" y2="31.221"/>
	<path fill="none" stroke="#2E434E" stroke-width="2" stroke-miterlimit="10" d="M25.166,23.85V8.947
		c0-1.993,1.631-3.625,3.623-3.625l0,0c1.996,0,3.628,1.631,3.628,3.625v2.014c0,1.772,1.45,3.223,3.222,3.223l0,0
		c1.772,0,3.222-1.451,3.222-3.223V4.517"/>
	<circle fill="#666666" cx="39.302" cy="30.873" r="2.014"/>
	<circle fill="#666666" cx="43.547" cy="33.819" r="2.014"/>
	<circle fill="#666666" cx="35.019" cy="33.469" r="2.014"/>
	<circle fill="#666666" cx="39.263" cy="36.614" r="2.014"/>
	
		<line fill="none" stroke="#ADB6BC" stroke-width="2" stroke-linecap="round" stroke-linejoin="round" stroke-miterlimit="10" x1="21.139" y1="39.934" x2="30.803" y2="39.934"/>
</g>
</svg>
